<?xml version="1.0" encoding="utf-8"?>
<!-- Svg Vector Icons : http://www.onlinewebfonts.com/icon -->
<!DOCTYPE svg PUBLIC "-//W3C//DTD SVG 1.1//EN" "http://www.w3.org/Graphics/SVG/1.1/DTD/svg11.dtd">
<svg version="1.1" xmlns="http://www.w3.org/2000/svg" xmlns:xlink="http://www.w3.org/1999/xlink" x="0px" y="0px" viewBox="0 0 256 256" enable-background="new 0 0 256 256" xml:space="preserve">
<metadata> Svg Vector Icons : http://www.onlinewebfonts.com/icon </metadata>
<g><g><g><path fill="#000000" d="M208.4,23.8c-0.7,0.3-1.5,1.2-1.9,1.9c-0.9,2-0.9,202.4,0,204.3c1.1,2.5,2.5,2.7,19.9,2.7c15.9,0,16.6-0.1,18-1.2l1.5-1.1V128V25.5l-1.5-1.1c-1.5-1.1-2.2-1.2-18.2-1.1C216.1,23.2,209.2,23.4,208.4,23.8z"/><path fill="#000000" d="M158.9,62.1c-0.7,0.7-1.1,1.9-1.2,3.3c0,1.2-0.1,38.8-0.1,83.5v81.3l1.5,1.3c1.5,1.3,1.7,1.3,18.4,1.3h17l1.7-1.7l1.7-1.7l-0.1-83.1l-0.2-83.2l-1.4-1.1c-1.3-1-2.5-1.1-18.7-1.1C160.8,61,160,61,158.9,62.1z"/><path fill="#000000" d="M108.6,96.2c-1.2,1.5-1.2,1.6-1.2,67c0,46.7,0.2,65.9,0.6,66.8c1.1,2.5,2.5,2.7,19.9,2.7c15.9,0,16.6-0.1,18-1.2l1.5-1.1v-67v-67l-1.3-0.9c-1.1-0.8-3.9-0.9-18.8-0.9h-17.6L108.6,96.2z"/><path fill="#000000" d="M59.3,132.9c-1.2,1.5-1.2,1.8-1.2,49v47.5l1.7,1.7l1.7,1.7h16.9c16.2,0,16.9-0.1,18.4-1.2l1.5-1.1v-48.6v-48.6l-1.3-0.9c-1.1-0.8-3.9-0.9-18.8-0.9H60.5L59.3,132.9z"/><path fill="#000000" d="M11.5,166.4l-1.5,1.1V199v31.4l1.5,1.1c1.5,1.1,2.2,1.2,18.4,1.2h16.9l1.7-1.7l1.7-1.7v-30.1c0-20.8-0.2-30.5-0.6-31.4c-1.1-2.5-2.5-2.7-19.9-2.7C13.7,165.2,13,165.3,11.5,166.4z"/></g></g></g>
</svg>