<?xml version="1.0" encoding="utf-8"?>
<!-- Svg Vector Icons : http://www.onlinewebfonts.com/icon -->
<!DOCTYPE svg PUBLIC "-//W3C//DTD SVG 1.1//EN" "http://www.w3.org/Graphics/SVG/1.1/DTD/svg11.dtd">
<svg version="1.1" xmlns="http://www.w3.org/2000/svg" xmlns:xlink="http://www.w3.org/1999/xlink" x="0px" y="0px" viewBox="0 0 256 256" enable-background="new 0 0 256 256" xml:space="preserve">
<metadata> Svg Vector Icons : http://www.onlinewebfonts.com/icon </metadata>
<g><g><g id="XMLID_9_"><path fill="#000000" id="XMLID_15_" d="M210.2,128c0-55.2-44.9-100.1-100.1-100.1C54.9,27.9,10,72.8,10,128c0,55.2,44.9,100.1,100.1,100.1c6.7,0,12.2-5.5,12.2-12.2s-5.5-12.2-12.2-12.2c-41.7,0-75.6-33.9-75.6-75.6c0-41.7,33.9-75.6,75.6-75.6s75.6,33.9,75.6,75.6c0,6.8,5.5,12.2,12.2,12.2C204.7,140.2,210.2,134.8,210.2,128z"/><path fill="#000000" id="XMLID_14_" d="M176.9,204.5h-19.5v-0.2l6.4-5.3c10-9,18.5-18.2,18.5-29.9c0-12.6-8.6-21.8-24.3-21.8c-6.9,0-13.1,1.7-18,4.2c-2.8,1.4-4,4.7-2.9,7.6l0.2,0.4c0.6,1.5,1.8,2.7,3.3,3.3c1.5,0.6,3.3,0.5,4.7-0.2c2.8-1.3,5.9-2.3,9.3-2.3c8,0,11.4,4.5,11.4,10.1c-0.2,8.1-7.6,15.9-22.7,29.5l-7.8,7c-0.7,0.7-1.2,1.7-1.2,2.7v4.6c0,2,1.6,3.6,3.6,3.6h38.8c3.7,0,6.7-3,6.7-6.7C183.6,207.5,180.6,204.5,176.9,204.5z"/><path fill="#000000" id="XMLID_11_" d="M240,189.1h-2.2v-37c0-2-1.6-3.6-3.6-3.6h-14.2c-1.3,0-2.4,0.6-3.1,1.7l-24.7,39.6c-0.4,0.6-0.6,1.3-0.6,1.9v5.9c0,2,1.6,3.6,3.6,3.6h27.1v8.9c0,4.2,3.4,7.7,7.7,7.7c4.2,0,7.7-3.4,7.7-7.7v-8.9h2.2c3.4,0,6.1-2.7,6.1-6.1C246,191.8,243.3,189.1,240,189.1z M222.3,173.8v15.4h-15.6v-0.2l9.3-15.2c2.3-4.4,4.2-8.4,6.4-12.9h0.4C222.5,165.3,222.3,169.6,222.3,173.8z"/><path fill="#000000" id="XMLID_10_" d="M110.1,65c-4.9,0-8.8,3.9-8.8,8.8v48.8c0,8,6.5,14.5,14.5,14.5h35.4c4.9,0,8.8-3.9,8.8-8.8c0-4.9-4-8.8-8.8-8.8h-32.3V73.8C118.9,68.9,115,65,110.1,65z"/></g><g></g><g></g><g></g><g></g><g></g><g></g><g></g><g></g><g></g><g></g><g></g><g></g><g></g><g></g><g></g></g></g>
</svg>