<?xml version="1.0" encoding="utf-8"?>
<!-- Svg Vector Icons : http://www.onlinewebfonts.com/icon -->
<!DOCTYPE svg PUBLIC "-//W3C//DTD SVG 1.1//EN" "http://www.w3.org/Graphics/SVG/1.1/DTD/svg11.dtd">
<svg version="1.1" xmlns="http://www.w3.org/2000/svg" xmlns:xlink="http://www.w3.org/1999/xlink" x="0px" y="0px" viewBox="0 0 256 256" enable-background="new 0 0 256 256" xml:space="preserve">
<metadata> Svg Vector Icons : http://www.onlinewebfonts.com/icon </metadata>
<g><g><g><path fill="#000000" d="M12.4,96.4c-0.7,0.3-1.5,1.2-1.8,1.9c-0.4,0.9-0.6,10.1-0.6,29.9v28.6l1.6,1.6l1.6,1.6l16.7-0.2l16.7-0.2l1-1.3c1-1.2,1-2.6,1-30.5c0-28-0.1-29.3-1-30.5l-1-1.3L30,95.9C19.3,95.9,13.2,96.1,12.4,96.4z"/><path fill="#000000" d="M155.6,144.8c-6.5,2-6.6,11.2-0.2,13.6c1,0.4,7.6,0.6,17.7,0.6c17.7,0,18.6-0.2,21-3.4c1.5-2,1.5-5.9,0-7.9c-2.3-3.3-3.2-3.4-20.8-3.3C164.5,144.3,156.5,144.6,155.6,144.8z"/><path fill="#000000" d="M206.2,144.8c-4.4,1.3-6.3,8-3.1,11.5c2.1,2.4,3.5,2.6,20.7,2.6c17.9,0,18.7-0.1,21.1-3.4c2.4-3.3,1-8.3-3-10.3c-1.6-0.9-3.6-1-17.9-0.9C215.1,144.3,207.1,144.6,206.2,144.8z"/><path fill="#000000" d="M56.7,145.6c-3,1.6-4.3,6.9-2.4,9.7c0.5,0.8,1.7,1.9,2.7,2.5c1.6,1,2.6,1,19.3,0.9l17.5-0.2l1.5-1.4c4-3.6,3.5-9.5-0.9-11.8C92,144.4,58.9,144.4,56.7,145.6z"/><path fill="#000000" d="M104.4,146.6c-3.5,3.2-3,8.8,1,11.3c1.6,1,2.8,1.1,18.5,1.1c18.1,0,19.5-0.2,21.3-2.9c2.2-3.3,1.5-7.6-1.7-10.1c-1.4-1.1-2-1.1-19.3-1.1h-17.9L104.4,146.6z"/></g></g></g>
</svg>